<svg width="1242" height="450" viewBox="0 0 1242 450" fill="none" xmlns="http://www.w3.org/2000/svg">
<path d="M450 225C450 349.264 349.264 450 225 450C100.736 450 0 349.264 0 225C0 100.736 100.736 0 225 0C349.264 0 450 100.736 450 225Z" fill="white"/>
<path d="M532.2 221.625H537.675C539.575 221.625 541.1 221.4 542.25 220.95C543.4 220.45 544.45 219.625 545.4 218.475L581.175 177.975C582.175 176.675 583.225 175.775 584.325 175.275C585.425 174.775 586.775 174.525 588.375 174.525H600.675L559.725 220.8C558.725 222 557.75 223 556.8 223.8C555.9 224.55 554.925 225.175 553.875 225.675C555.225 226.125 556.45 226.8 557.55 227.7C558.65 228.55 559.725 229.675 560.775 231.075L603.525 282H590.925C589.975 282 589.15 281.95 588.45 281.85C587.8 281.7 587.225 281.5 586.725 281.25C586.225 280.95 585.775 280.625 585.375 280.275C585.025 279.875 584.675 279.425 584.325 278.925L547.275 236.25C546.275 235 545.2 234.125 544.05 233.625C542.9 233.075 541.15 232.8 538.8 232.8H532.2V282H517.725V174.525H532.2V221.625ZM709.896 228.3C709.896 236.35 708.621 243.75 706.071 250.5C703.521 257.2 699.921 262.975 695.271 267.825C690.621 272.675 685.021 276.45 678.471 279.15C671.971 281.8 664.771 283.125 656.871 283.125C648.971 283.125 641.771 281.8 635.271 279.15C628.771 276.45 623.196 272.675 618.546 267.825C613.896 262.975 610.296 257.2 607.746 250.5C605.196 243.75 603.921 236.35 603.921 228.3C603.921 220.25 605.196 212.875 607.746 206.175C610.296 199.425 613.896 193.625 618.546 188.775C623.196 183.875 628.771 180.075 635.271 177.375C641.771 174.675 648.971 173.325 656.871 173.325C664.771 173.325 671.971 174.675 678.471 177.375C685.021 180.075 690.621 183.875 695.271 188.775C699.921 193.625 703.521 199.425 706.071 206.175C708.621 212.875 709.896 220.25 709.896 228.3ZM694.971 228.3C694.971 221.7 694.071 215.775 692.271 210.525C690.471 205.275 687.921 200.85 684.621 197.25C681.321 193.6 677.321 190.8 672.621 188.85C667.921 186.9 662.671 185.925 656.871 185.925C651.121 185.925 645.896 186.9 641.196 188.85C636.496 190.8 632.471 193.6 629.121 197.25C625.821 200.85 623.271 205.275 621.471 210.525C619.671 215.775 618.771 221.7 618.771 228.3C618.771 234.9 619.671 240.825 621.471 246.075C623.271 251.275 625.821 255.7 629.121 259.35C632.471 262.95 636.496 265.725 641.196 267.675C645.896 269.575 651.121 270.525 656.871 270.525C662.671 270.525 667.921 269.575 672.621 267.675C677.321 265.725 681.321 262.95 684.621 259.35C687.921 255.7 690.471 251.275 692.271 246.075C694.071 240.825 694.971 234.9 694.971 228.3ZM823.863 228.3C823.863 236.35 822.588 243.675 820.038 250.275C817.488 256.875 813.888 262.525 809.238 267.225C804.588 271.925 798.988 275.575 792.438 278.175C785.938 280.725 778.738 282 770.838 282H730.713V174.525H770.838C778.738 174.525 785.938 175.825 792.438 178.425C798.988 180.975 804.588 184.625 809.238 189.375C813.888 194.075 817.488 199.725 820.038 206.325C822.588 212.925 823.863 220.25 823.863 228.3ZM808.938 228.3C808.938 221.7 808.038 215.8 806.238 210.6C804.438 205.4 801.888 201 798.588 197.4C795.288 193.8 791.288 191.05 786.588 189.15C781.888 187.25 776.638 186.3 770.838 186.3H745.263V270.225H770.838C776.638 270.225 781.888 269.275 786.588 267.375C791.288 265.475 795.288 262.75 798.588 259.2C801.888 255.6 804.438 251.2 806.238 246C808.038 240.8 808.938 234.9 808.938 228.3ZM898.97 242.1L882.095 198.375C881.595 197.075 881.07 195.575 880.52 193.875C879.97 192.125 879.445 190.275 878.945 188.325C877.895 192.375 876.82 195.75 875.72 198.45L858.845 242.1H898.97ZM929.27 282H918.02C916.72 282 915.67 281.675 914.87 281.025C914.07 280.375 913.47 279.55 913.07 278.55L903.02 252.6H854.795L844.745 278.55C844.445 279.45 843.87 280.25 843.02 280.95C842.17 281.65 841.12 282 839.87 282H828.62L871.595 174.525H886.295L929.27 282ZM1039.93 228.3C1039.93 236.35 1038.65 243.75 1036.1 250.5C1033.55 257.2 1029.95 262.975 1025.3 267.825C1020.65 272.675 1015.05 276.45 1008.5 279.15C1002 281.8 994.8 283.125 986.9 283.125C979 283.125 971.8 281.8 965.3 279.15C958.8 276.45 953.225 272.675 948.575 267.825C943.925 262.975 940.325 257.2 937.775 250.5C935.225 243.75 933.95 236.35 933.95 228.3C933.95 220.25 935.225 212.875 937.775 206.175C940.325 199.425 943.925 193.625 948.575 188.775C953.225 183.875 958.8 180.075 965.3 177.375C971.8 174.675 979 173.325 986.9 173.325C994.8 173.325 1002 174.675 1008.5 177.375C1015.05 180.075 1020.65 183.875 1025.3 188.775C1029.95 193.625 1033.55 199.425 1036.1 206.175C1038.65 212.875 1039.93 220.25 1039.93 228.3ZM1025 228.3C1025 221.7 1024.1 215.775 1022.3 210.525C1020.5 205.275 1017.95 200.85 1014.65 197.25C1011.35 193.6 1007.35 190.8 1002.65 188.85C997.95 186.9 992.7 185.925 986.9 185.925C981.15 185.925 975.925 186.9 971.225 188.85C966.525 190.8 962.5 193.6 959.15 197.25C955.85 200.85 953.3 205.275 951.5 210.525C949.7 215.775 948.8 221.7 948.8 228.3C948.8 234.9 949.7 240.825 951.5 246.075C953.3 251.275 955.85 255.7 959.15 259.35C962.5 262.95 966.525 265.725 971.225 267.675C975.925 269.575 981.15 270.525 986.9 270.525C992.7 270.525 997.95 269.575 1002.65 267.675C1007.35 265.725 1011.35 262.95 1014.65 259.35C1017.95 255.7 1020.5 251.275 1022.3 246.075C1024.1 240.825 1025 234.9 1025 228.3ZM1051.83 273.75C1051.83 272.45 1052.05 271.225 1052.5 270.075C1053 268.925 1053.65 267.925 1054.45 267.075C1055.3 266.225 1056.3 265.55 1057.45 265.05C1058.6 264.55 1059.83 264.3 1061.13 264.3C1062.43 264.3 1063.65 264.55 1064.8 265.05C1065.95 265.55 1066.95 266.225 1067.8 267.075C1068.65 267.925 1069.33 268.925 1069.83 270.075C1070.33 271.225 1070.58 272.45 1070.58 273.75C1070.58 275.1 1070.33 276.35 1069.83 277.5C1069.33 278.6 1068.65 279.575 1067.8 280.425C1066.95 281.275 1065.95 281.925 1064.8 282.375C1063.65 282.875 1062.43 283.125 1061.13 283.125C1059.83 283.125 1058.6 282.875 1057.45 282.375C1056.3 281.925 1055.3 281.275 1054.45 280.425C1053.65 279.575 1053 278.6 1052.5 277.5C1052.05 276.35 1051.83 275.1 1051.83 273.75Z" fill="white"/>
<path d="M1107.23 282H1092.68V174.525H1107.23V282ZM1234.02 228.3C1234.02 236.35 1232.74 243.75 1230.19 250.5C1227.64 257.2 1224.04 262.975 1219.39 267.825C1214.74 272.675 1209.14 276.45 1202.59 279.15C1196.09 281.8 1188.89 283.125 1180.99 283.125C1173.09 283.125 1165.89 281.8 1159.39 279.15C1152.89 276.45 1147.32 272.675 1142.67 267.825C1138.02 262.975 1134.42 257.2 1131.87 250.5C1129.32 243.75 1128.04 236.35 1128.04 228.3C1128.04 220.25 1129.32 212.875 1131.87 206.175C1134.42 199.425 1138.02 193.625 1142.67 188.775C1147.32 183.875 1152.89 180.075 1159.39 177.375C1165.89 174.675 1173.09 173.325 1180.99 173.325C1188.89 173.325 1196.09 174.675 1202.59 177.375C1209.14 180.075 1214.74 183.875 1219.39 188.775C1224.04 193.625 1227.64 199.425 1230.19 206.175C1232.74 212.875 1234.02 220.25 1234.02 228.3ZM1219.09 228.3C1219.09 221.7 1218.19 215.775 1216.39 210.525C1214.59 205.275 1212.04 200.85 1208.74 197.25C1205.44 193.6 1201.44 190.8 1196.74 188.85C1192.04 186.9 1186.79 185.925 1180.99 185.925C1175.24 185.925 1170.02 186.9 1165.32 188.85C1160.62 190.8 1156.59 193.6 1153.24 197.25C1149.94 200.85 1147.39 205.275 1145.59 210.525C1143.79 215.775 1142.89 221.7 1142.89 228.3C1142.89 234.9 1143.79 240.825 1145.59 246.075C1147.39 251.275 1149.94 255.7 1153.24 259.35C1156.59 262.95 1160.62 265.725 1165.32 267.675C1170.02 269.575 1175.24 270.525 1180.99 270.525C1186.79 270.525 1192.04 269.575 1196.74 267.675C1201.44 265.725 1205.44 262.95 1208.74 259.35C1212.04 255.7 1214.59 251.275 1216.39 246.075C1218.19 240.825 1219.09 234.9 1219.09 228.3Z" fill="#A87BCB"/>
<path d="M225.51 226.025L348.284 348.291C348.916 348.921 348.471 350 347.579 350H102.414C101.523 350 101.077 348.923 101.707 348.293L348.293 101.707C348.923 101.077 348.477 100 347.586 100H225M225 100H101C100.448 100 100 100.448 100 101V223.596C100 224.489 101.081 224.935 101.71 224.301L225 100Z" stroke="black" stroke-width="35"/>
<path d="M1109 155C1109 159.971 1104.97 164 1100 164C1095.03 164 1091 159.971 1091 155C1091 150.029 1095.03 146 1100 146C1104.97 146 1109 150.029 1109 155Z" fill="#A87BCB"/>
</svg>
