<svg width="918" height="900" viewBox="0 0 918 900" fill="none" xmlns="http://www.w3.org/2000/svg">
<path d="M918 450C918 698.528 712.499 900 459 900C205.501 900 0 698.528 0 450C0 201.472 205.501 0 459 0C712.499 0 918 201.472 918 450Z" fill="white"/>
<path d="M460.041 452.09L712.284 703.291C712.916 703.921 712.471 705 711.579 705H206.414C205.523 705 205.077 703.923 205.707 703.293L712.293 196.707C712.923 196.077 712.477 195 711.586 195H459M459 195H205C204.448 195 204 195.448 204 196V449.662C204 450.555 205.081 451 205.71 450.366L459 195Z" stroke="black" stroke-width="60"/>
</svg>
